{
 "cells": [
  {
   "cell_type": "code",
   "execution_count": 13,
   "metadata": {},
   "outputs": [
    {
     "name": "stdout",
     "output_type": "stream",
     "text": [
      "total samples: 215\n",
      "meet the requirement (at least 1 K-D/E structure): 29\n",
      "meet the requirement (more than 2 K-D/E structures): 4\n",
      "43\n",
      "4\n"
     ]
    }
   ],
   "source": [
    "# Condition11\n",
    "\n",
    "import json\n",
    "import numpy as np\n",
    "import os\n",
    "from Bio.PDB import PDBParser\n",
    "\n",
    "# 文件路径\n",
    "directory = '/home/jiangdapeng/PepGLAD/results/condition11_w5_5samples/results.jsonl'\n",
    "directory_good = '/home/jiangdapeng/PepGLAD/results/condition11_w5_5samples/good_results_multiple.jsonl'\n",
    "\n",
    "# 初始化变量\n",
    "all_peptide_list = []\n",
    "meet_peptide_dic1 = {}\n",
    "meet_peptide_dic_path1 = {}\n",
    "total_counter = 0\n",
    "counter2 = 0  # 满足至少 1 个结构的多肽数\n",
    "counter3 = 0  # 满足超过 2 个结构的多肽数\n",
    "\n",
    "def check_kde_structures(peptide, residues, distance_threshold=(4, 6.5), min_structures=3):\n",
    "    \"\"\"\n",
    "    检查多肽是否存在超过 2 个不交叉的 K-D/E 结构。\n",
    "    - peptide: 多肽序列\n",
    "    - residues: PDB 残基列表\n",
    "    - distance_threshold: 距离阈值 (lower, upper)\n",
    "    - min_structures: 至少需要的结构数量\n",
    "    返回:\n",
    "    - True/False: 是否满足条件\n",
    "    - valid_positions: 满足条件的结构起始位置列表\n",
    "    \"\"\"\n",
    "    valid_positions = []  # 存储满足条件的结构起始位置\n",
    "    lower, upper = distance_threshold\n",
    "    for i in range(len(residues) - 4):\n",
    "        atom1 = residues[i]['C']\n",
    "        atom2 = residues[i + 3]['C']\n",
    "        atom3 = residues[i + 4]['C']\n",
    "        distance1 = np.linalg.norm(atom1.coord - atom2.coord)\n",
    "        distance2 = np.linalg.norm(atom1.coord - atom3.coord)\n",
    "\n",
    "        # 检查是否满足 K-D/E 条件和距离要求\n",
    "        if peptide[i] == 'K':\n",
    "            if ((peptide[i + 3] in 'DE' and lower < distance1 < upper) or\n",
    "                (peptide[i + 4] in 'DE' and lower < distance2 < upper)):\n",
    "                # 检查是否与已有结构重叠\n",
    "                if not any(i in [start, start + 4] for start in valid_positions):\n",
    "                    valid_positions.append(i)\n",
    "                    # 如果满足的结构数量达到阈值，提前返回\n",
    "                    if len(valid_positions) >= min_structures:\n",
    "                        return True, valid_positions\n",
    "    return False, valid_positions\n",
    "\n",
    "# 主逻辑\n",
    "with open(directory, 'r', encoding='utf-8') as f, open(directory_good, 'w', encoding='utf-8') as good_file:\n",
    "    for line in f:\n",
    "        if line.strip():  # 跳过空行\n",
    "            json_object = json.loads(line)\n",
    "            python_object = json.loads(line.strip())\n",
    "            id = json_object['id']\n",
    "            peptide_path = json_object['gen_pdb']\n",
    "            peptide_path = os.path.join('..', peptide_path)\n",
    "            peptide = json_object['gen_seq']\n",
    "            parser = PDBParser(QUIET=True)\n",
    "            structure = parser.get_structure('peptide', peptide_path)\n",
    "            chain = structure[0][json_object['lig_chain']]\n",
    "            residues = list(chain.get_residues())\n",
    "\n",
    "            if len(peptide) < 10:  # 跳过长度小于 5 的多肽\n",
    "                continue\n",
    "\n",
    "            if id not in all_peptide_list:\n",
    "                all_peptide_list.append(id)\n",
    "\n",
    "            total_counter += 1\n",
    "\n",
    "            # 检查是否有超过 2 个不交叉的 K-D/E 结构\n",
    "            satisfies, positions = check_kde_structures(peptide, residues,min_structures=2)\n",
    "            if satisfies:\n",
    "                counter3 += 1  # 计数满足超过 2 个结构的多肽\n",
    "                if id not in meet_peptide_dic1.keys():\n",
    "                    meet_peptide_dic1[id] = 1\n",
    "                    meet_peptide_dic_path1[id] = [peptide_path]\n",
    "                    good_file.write(json.dumps(python_object) + '\\n')\n",
    "                else:\n",
    "                    meet_peptide_dic1[id] += 1\n",
    "                    if peptide_path not in meet_peptide_dic_path1[id]:\n",
    "                        meet_peptide_dic_path1[id].append(peptide_path)\n",
    "                        good_file.write(json.dumps(python_object) + '\\n')\n",
    "\n",
    "            # 记录满足单个结构条件的多肽数\n",
    "            if len(positions) > 0:\n",
    "                counter2 += 1\n",
    "\n",
    "# 输出结果统计\n",
    "print(f'total samples: {total_counter}')\n",
    "print(f'meet the requirement (at least 1 K-D/E structure): {counter2}')\n",
    "print(f'meet the requirement (more than 1 K-D/E structures): {counter3}')\n",
    "print(len(all_peptide_list))\n",
    "print(len(meet_peptide_dic1.keys()))"
   ]
  },
  {
   "cell_type": "code",
   "execution_count": null,
   "metadata": {},
   "outputs": [
    {
     "name": "stderr",
     "output_type": "stream",
     "text": [
      "Exception ignored in: <bound method IPythonKernel._clean_thread_parent_frames of <ipykernel.ipkernel.IPythonKernel object at 0x7f02aca75bb0>>\n",
      "Traceback (most recent call last):\n",
      "  File \"/data/private/jdp/envs/PepGLAD/lib/python3.9/site-packages/ipykernel/ipkernel.py\", line 775, in _clean_thread_parent_frames\n",
      "    def _clean_thread_parent_frames(\n",
      "KeyboardInterrupt: \n"
     ]
    }
   ],
   "source": [
    "# Condition 2\n",
    "all_peptide_list = []\n",
    "meet_peptide_dic2 = {}\n",
    "meet_peptide_dic_path2 = {}\n",
    "import json\n",
    "import numpy as np\n",
    "import os\n",
    "from Bio.PDB import PDBParser\n",
    "import mdtraj as md\n",
    "directory = '/home/jiangdapeng/PepGLAD/results/condition2_w1_50samples/results.jsonl'\n",
    "directory_good = '/home/jiangdapeng/PepGLAD/results/condition2_w1_50samples/good_results.jsonl'\n",
    "counter = 0\n",
    "counter2 = 0\n",
    "counter3 = 0\n",
    "total_counter = 0\n",
    "distance_list = []\n",
    "with open(directory, 'r', encoding='utf-8') as f, open(directory_good, 'w', encoding='utf-8') as good_file:\n",
    "    for line in f:\n",
    "        # 跳过空行\n",
    "        if line.strip():\n",
    "            # 将每行解析为 JSON 对象\n",
    "            json_object = json.loads(line)\n",
    "            python_object = json.loads(line.strip())\n",
    "            id = json_object['id']\n",
    "            if id not in all_peptide_list:\n",
    "                all_peptide_list.append(id)\n",
    "            peptide_path = json_object['gen_pdb']\n",
    "            peptide_path = os.path.join('..',peptide_path)\n",
    "            peptide = json_object['gen_seq']\n",
    "            parser = PDBParser(QUIET=True)\n",
    "            structure = parser.get_structure('peptide', peptide_path)\n",
    "            chain = structure[0][json_object['lig_chain']]  # 假设只取第一个模型和指定的链\n",
    "            residues = list(chain.get_residues())\n",
    "            total_counter=total_counter+1\n",
    "            first_atom = residues[0]['C']  # N端的氮原子\n",
    "            last_atom = residues[-1]['C']   # C端的羧基碳原子\n",
    "            # 计算欧几里得距离\n",
    "            distance = np.linalg.norm(first_atom.coord - last_atom.coord)\n",
    "            distance_list.append(distance)\n",
    "            if distance<5:\n",
    "                if id not in meet_peptide_dic2.keys():\n",
    "                    meet_peptide_dic2[id] = 1\n",
    "                    meet_peptide_dic_path2[id] = [peptide_path]\n",
    "                    good_file.write(json.dumps(python_object) + '\\n')\n",
    "                else:\n",
    "                    meet_peptide_dic2[id] += 1\n",
    "                    if peptide_path not in meet_peptide_dic_path2[id]:\n",
    "                        meet_peptide_dic_path2[id].append(peptide_path)\n",
    "                        good_file.write(json.dumps(python_object) + '\\n')\n",
    "                counter+=1\n",
    "\n",
    "print(f'mean distance is {np.mean(distance_list)}')\n",
    "print(f'meet the requirement Distance: {counter}')\n",
    "print(f'total samples:{total_counter}')\n",
    "print(len(meet_peptide_dic2.keys()))\n",
    "print(len(all_peptide_list))"
   ]
  },
  {
   "cell_type": "code",
   "execution_count": 10,
   "metadata": {},
   "outputs": [
    {
     "name": "stdout",
     "output_type": "stream",
     "text": [
      "mean distance is 0\n",
      "meet the requirement Distance: 5\n",
      "total samples: 54\n",
      "meet the requirement Cys: 5\n",
      "30\n",
      "5\n"
     ]
    }
   ],
   "source": [
    "import json\n",
    "import numpy as np\n",
    "import os\n",
    "from Bio.PDB import PDBParser\n",
    "\n",
    "# Condition32\n",
    "# 文件路径\n",
    "directory = '/home/jiangdapeng/PepGLAD/results/condition32_w2_5samples/results.jsonl'\n",
    "directory_good = '/home/jiangdapeng/PepGLAD/results/condition32_w2_5samples/good_results_double.jsonl'\n",
    "\n",
    "# 初始化变量\n",
    "all_peptide_list = []\n",
    "meet_peptide_dic3 = {}\n",
    "meet_peptide_dic_path3 = {}\n",
    "total_counter = 0\n",
    "counter = 0  # 满足距离条件的结构数\n",
    "counter2 = 0  # 满足至少一个 C-C 条件的多肽数\n",
    "counter3 = 0  # 满足至少两个非相邻结构的多肽数\n",
    "distance_list = []\n",
    "\n",
    "def check_cc_structures(peptide, residues, distance_threshold=6, min_structures=1):\n",
    "    \"\"\"\n",
    "    检查多肽是否存在至少两个不交叉且非相邻的 C-C 结构，且距离小于 distance_threshold。\n",
    "    - peptide: 多肽序列\n",
    "    - residues: PDB 残基列表\n",
    "    - distance_threshold: 距离阈值（默认 6 埃）\n",
    "    - min_structures: 至少需要的结构数量\n",
    "    返回:\n",
    "    - True/False: 是否满足条件\n",
    "    - valid_pairs: 满足条件的残基对列表\n",
    "    \"\"\"\n",
    "    valid_pairs = []  # 存储满足条件的残基对 (i, j)\n",
    "    for i in range(len(residues)):\n",
    "        for j in range(i + 1, len(residues)):\n",
    "            # 检查是否是非相邻残基\n",
    "            if j - i <= 2:\n",
    "                continue\n",
    "            # 检查残基是否为 C（半胱氨酸）\n",
    "            if peptide[i] == 'C' and peptide[j] == 'C':\n",
    "                first_atom = residues[i]['C']\n",
    "                last_atom = residues[j]['C']\n",
    "                distance = np.linalg.norm(first_atom.coord - last_atom.coord)\n",
    "                # 检查距离条件\n",
    "                if distance < distance_threshold:\n",
    "                    # 检查是否与已有对重叠\n",
    "                    # if not any((start <= i <= end or start <= j <= end) for start, end in valid_pairs):\n",
    "                    if not any((i in pair) or (j in pair) for pair in valid_pairs):\n",
    "                        valid_pairs.append((i, j))\n",
    "                        # 如果满足的结构数量达到阈值，提前返回\n",
    "                        if len(valid_pairs) >= min_structures:\n",
    "                            return True, valid_pairs\n",
    "    return False, valid_pairs\n",
    "\n",
    "# 主逻辑\n",
    "with open(directory, 'r', encoding='utf-8') as f, open(directory_good, 'w', encoding='utf-8') as good_file:\n",
    "    for line in f:\n",
    "        if line.strip():  # 跳过空行\n",
    "            json_object = json.loads(line)\n",
    "            python_object = json.loads(line.strip())\n",
    "            peptide_path = json_object['gen_pdb']\n",
    "            peptide_path = os.path.join('..', peptide_path)\n",
    "            peptide = json_object['gen_seq']\n",
    "            id = json_object['id']\n",
    "            parser = PDBParser(QUIET=True)\n",
    "            structure = parser.get_structure('peptide', peptide_path)\n",
    "            chain = structure[0][json_object['lig_chain']]\n",
    "            residues = list(chain.get_residues())\n",
    "\n",
    "            first_atom = residues[0]['C']  # N端的氮原子\n",
    "            last_atom = residues[-1]['C']   # C端的羧基碳原子\n",
    "            # 计算欧几里得距离\n",
    "            distance = np.linalg.norm(first_atom.coord - last_atom.coord)\n",
    "\n",
    "\n",
    "            if len(peptide) < 8:  # 跳过长度小于 8 的多肽\n",
    "                continue\n",
    "\n",
    "            if id not in all_peptide_list:\n",
    "                all_peptide_list.append(id)\n",
    "\n",
    "            total_counter += 1\n",
    "\n",
    "            # 检查是否有至少两个不交叉且非相邻的 C-C 结构\n",
    "            satisfies, valid_pairs = check_cc_structures(peptide, residues,min_structures=1)\n",
    "            if satisfies and distance<6:\n",
    "                counter3 += 1  # 计数满足至少两个结构的多肽\n",
    "                if id not in meet_peptide_dic3.keys():\n",
    "                    meet_peptide_dic3[id] = 1\n",
    "                    meet_peptide_dic_path3[id] = [peptide_path]\n",
    "                    good_file.write(json.dumps(python_object) + '\\n')\n",
    "                else:\n",
    "                    meet_peptide_dic3[id] += 1\n",
    "                    if peptide_path not in meet_peptide_dic_path3[id]:\n",
    "                        meet_peptide_dic_path3[id].append(peptide_path)\n",
    "                        good_file.write(json.dumps(python_object) + '\\n')\n",
    "\n",
    "            # 记录满足单个结构条件的数量\n",
    "            counter += len(valid_pairs)\n",
    "            if len(valid_pairs) > 0:\n",
    "                counter2 += 1\n",
    "\n",
    "# 输出结果统计\n",
    "print(f'mean distance is {np.mean(distance_list) if distance_list else 0}')\n",
    "print(f'meet the requirement Distance: {counter}')\n",
    "print(f'total samples: {total_counter}')\n",
    "print(f'meet the requirement Cys: {counter2}')\n",
    "print(len(all_peptide_list))\n",
    "print(len(meet_peptide_dic3.keys()))"
   ]
  },
  {
   "cell_type": "code",
   "execution_count": 1,
   "metadata": {},
   "outputs": [
    {
     "name": "stdout",
     "output_type": "stream",
     "text": [
      "mean distance is 0\n",
      "meet the requirement Distance: 35\n",
      "total samples: 76\n",
      "meet the requirement Cys: 24\n",
      "50\n",
      "2\n"
     ]
    }
   ],
   "source": [
    "import json\n",
    "import numpy as np\n",
    "import os\n",
    "from Bio.PDB import PDBParser\n",
    "\n",
    "# Condition333\n",
    "# 文件路径\n",
    "directory = '/home/jiangdapeng/PepGLAD/results/condition333_w2_5samples/results.jsonl'\n",
    "directory_good = '/home/jiangdapeng/PepGLAD/results/condition333_w2_5samples/good_results_double.jsonl'\n",
    "\n",
    "# 初始化变量\n",
    "all_peptide_list = []\n",
    "meet_peptide_dic3 = {}\n",
    "meet_peptide_dic_path3 = {}\n",
    "total_counter = 0\n",
    "counter = 0  # 满足距离条件的结构数\n",
    "counter2 = 0  # 满足至少一个 C-C 条件的多肽数\n",
    "counter3 = 0  # 满足至少两个非相邻结构的多肽数\n",
    "distance_list = []\n",
    "\n",
    "def check_cc_structures(peptide, residues, distance_threshold=6, min_structures=2):\n",
    "    \"\"\"\n",
    "    检查多肽是否存在至少两个不交叉且非相邻的 C-C 结构，且距离小于 distance_threshold。\n",
    "    - peptide: 多肽序列\n",
    "    - residues: PDB 残基列表\n",
    "    - distance_threshold: 距离阈值（默认 6 埃）\n",
    "    - min_structures: 至少需要的结构数量\n",
    "    返回:\n",
    "    - True/False: 是否满足条件\n",
    "    - valid_pairs: 满足条件的残基对列表\n",
    "    \"\"\"\n",
    "    valid_pairs = []  # 存储满足条件的残基对 (i, j)\n",
    "    for i in range(len(residues)):\n",
    "        for j in range(i + 1, len(residues)):\n",
    "            # 检查是否是非相邻残基\n",
    "            if j - i <= 2:\n",
    "                continue\n",
    "            # 检查残基是否为 C（半胱氨酸）\n",
    "            if peptide[i] == 'C' and peptide[j] == 'C':\n",
    "                first_atom = residues[i]['C']\n",
    "                last_atom = residues[j]['C']\n",
    "                distance = np.linalg.norm(first_atom.coord - last_atom.coord)\n",
    "                # 检查距离条件\n",
    "                if distance < distance_threshold:\n",
    "                    # 检查是否与已有对重叠\n",
    "                    # if not any((start <= i <= end or start <= j <= end) for start, end in valid_pairs):\n",
    "                    if not any((i in pair) or (j in pair) for pair in valid_pairs):\n",
    "                        valid_pairs.append((i, j))\n",
    "                        # 如果满足的结构数量达到阈值，提前返回\n",
    "                        if len(valid_pairs) >= min_structures:\n",
    "                            return True, valid_pairs\n",
    "    return False, valid_pairs\n",
    "\n",
    "# 主逻辑\n",
    "with open(directory, 'r', encoding='utf-8') as f, open(directory_good, 'w', encoding='utf-8') as good_file:\n",
    "    for line in f:\n",
    "        if line.strip():  # 跳过空行\n",
    "            json_object = json.loads(line)\n",
    "            python_object = json.loads(line.strip())\n",
    "            peptide_path = json_object['gen_pdb']\n",
    "            peptide_path = os.path.join('..', peptide_path)\n",
    "            peptide = json_object['gen_seq']\n",
    "            id = json_object['id']\n",
    "            parser = PDBParser(QUIET=True)\n",
    "            structure = parser.get_structure('peptide', peptide_path)\n",
    "            chain = structure[0][json_object['lig_chain']]\n",
    "            residues = list(chain.get_residues())\n",
    "\n",
    "            if len(peptide) < 8:  # 跳过长度小于 8 的多肽\n",
    "                continue\n",
    "\n",
    "            if id not in all_peptide_list:\n",
    "                all_peptide_list.append(id)\n",
    "\n",
    "            total_counter += 1\n",
    "\n",
    "            # 检查是否有至少两个不交叉且非相邻的 C-C 结构\n",
    "            satisfies, valid_pairs = check_cc_structures(peptide, residues,min_structures=3)\n",
    "            if satisfies:\n",
    "                counter3 += 1  # 计数满足至少两个结构的多肽\n",
    "                if id not in meet_peptide_dic3.keys():\n",
    "                    meet_peptide_dic3[id] = 1\n",
    "                    meet_peptide_dic_path3[id] = [peptide_path]\n",
    "                    good_file.write(json.dumps(python_object) + '\\n')\n",
    "                else:\n",
    "                    meet_peptide_dic3[id] += 1\n",
    "                    if peptide_path not in meet_peptide_dic_path3[id]:\n",
    "                        meet_peptide_dic_path3[id].append(peptide_path)\n",
    "                        good_file.write(json.dumps(python_object) + '\\n')\n",
    "\n",
    "            # 记录满足单个结构条件的数量\n",
    "            counter += len(valid_pairs)\n",
    "            if len(valid_pairs) > 0:\n",
    "                counter2 += 1\n",
    "\n",
    "# 输出结果统计\n",
    "print(f'mean distance is {np.mean(distance_list) if distance_list else 0}')\n",
    "print(f'meet the requirement Distance: {counter}')\n",
    "print(f'total samples: {total_counter}')\n",
    "print(f'meet the requirement Cys: {counter2}')\n",
    "print(len(all_peptide_list))\n",
    "print(len(meet_peptide_dic3.keys()))\n",
    "\n"
   ]
  },
  {
   "cell_type": "code",
   "execution_count": 7,
   "metadata": {},
   "outputs": [
    {
     "data": {
      "text/plain": [
       "{'1d4t': ['.././results/condition33_w2_5samples/candidates/1d4t/1d4t_gen_0.pdb',\n",
       "  '.././results/condition33_w2_5samples/candidates/1d4t/1d4t_gen_4.pdb'],\n",
       " '2x72': ['.././results/condition33_w2_5samples/candidates/2x72/2x72_gen_0.pdb',\n",
       "  '.././results/condition33_w2_5samples/candidates/2x72/2x72_gen_1.pdb'],\n",
       " '2xyi': ['.././results/condition33_w2_5samples/candidates/2xyi/2xyi_gen_0.pdb'],\n",
       " '3pkn': ['.././results/condition33_w2_5samples/candidates/3pkn/3pkn_gen_0.pdb',\n",
       "  '.././results/condition33_w2_5samples/candidates/3pkn/3pkn_gen_2.pdb',\n",
       "  '.././results/condition33_w2_5samples/candidates/3pkn/3pkn_gen_4.pdb'],\n",
       " '4dcb': ['.././results/condition33_w2_5samples/candidates/4dcb/4dcb_gen_0.pdb',\n",
       "  '.././results/condition33_w2_5samples/candidates/4dcb/4dcb_gen_3.pdb'],\n",
       " '5vao': ['.././results/condition33_w2_5samples/candidates/5vao/5vao_gen_0.pdb'],\n",
       " '6g86': ['.././results/condition33_w2_5samples/candidates/6g86/6g86_gen_0.pdb',\n",
       "  '.././results/condition33_w2_5samples/candidates/6g86/6g86_gen_2.pdb'],\n",
       " '1fiw': ['.././results/condition33_w2_5samples/candidates/1fiw/1fiw_gen_1.pdb',\n",
       "  '.././results/condition33_w2_5samples/candidates/1fiw/1fiw_gen_4.pdb'],\n",
       " '2np0': ['.././results/condition33_w2_5samples/candidates/2np0/2np0_gen_1.pdb',\n",
       "  '.././results/condition33_w2_5samples/candidates/2np0/2np0_gen_2.pdb'],\n",
       " '3wbn': ['.././results/condition33_w2_5samples/candidates/3wbn/3wbn_gen_1.pdb'],\n",
       " '4bta': ['.././results/condition33_w2_5samples/candidates/4bta/4bta_gen_1.pdb',\n",
       "  '.././results/condition33_w2_5samples/candidates/4bta/4bta_gen_2.pdb',\n",
       "  '.././results/condition33_w2_5samples/candidates/4bta/4bta_gen_3.pdb',\n",
       "  '.././results/condition33_w2_5samples/candidates/4bta/4bta_gen_4.pdb'],\n",
       " '4k0u': ['.././results/condition33_w2_5samples/candidates/4k0u/4k0u_gen_1.pdb',\n",
       "  '.././results/condition33_w2_5samples/candidates/4k0u/4k0u_gen_3.pdb'],\n",
       " '4xob': ['.././results/condition33_w2_5samples/candidates/4xob/4xob_gen_1.pdb'],\n",
       " '5n85': ['.././results/condition33_w2_5samples/candidates/5n85/5n85_gen_1.pdb'],\n",
       " '1t4f': ['.././results/condition33_w2_5samples/candidates/1t4f/1t4f_gen_2.pdb',\n",
       "  '.././results/condition33_w2_5samples/candidates/1t4f/1t4f_gen_3.pdb'],\n",
       " '3c3o': ['.././results/condition33_w2_5samples/candidates/3c3o/3c3o_gen_2.pdb',\n",
       "  '.././results/condition33_w2_5samples/candidates/3c3o/3c3o_gen_3.pdb'],\n",
       " '3ro3': ['.././results/condition33_w2_5samples/candidates/3ro3/3ro3_gen_2.pdb'],\n",
       " '4piq': ['.././results/condition33_w2_5samples/candidates/4piq/4piq_gen_2.pdb'],\n",
       " '5lm1': ['.././results/condition33_w2_5samples/candidates/5lm1/5lm1_gen_2.pdb',\n",
       "  '.././results/condition33_w2_5samples/candidates/5lm1/5lm1_gen_3.pdb'],\n",
       " '5yc2': ['.././results/condition33_w2_5samples/candidates/5yc2/5yc2_gen_2.pdb',\n",
       "  '.././results/condition33_w2_5samples/candidates/5yc2/5yc2_gen_3.pdb'],\n",
       " '1t3l': ['.././results/condition33_w2_5samples/candidates/1t3l/1t3l_gen_3.pdb'],\n",
       " '4z2o': ['.././results/condition33_w2_5samples/candidates/4z2o/4z2o_gen_3.pdb',\n",
       "  '.././results/condition33_w2_5samples/candidates/4z2o/4z2o_gen_4.pdb'],\n",
       " '1bjr': ['.././results/condition33_w2_5samples/candidates/1bjr/1bjr_gen_4.pdb'],\n",
       " '4w50': ['.././results/condition33_w2_5samples/candidates/4w50/4w50_gen_4.pdb']}"
      ]
     },
     "execution_count": 7,
     "metadata": {},
     "output_type": "execute_result"
    }
   ],
   "source": [
    "meet_peptide_dic_path3"
   ]
  },
  {
   "cell_type": "code",
   "execution_count": 32,
   "metadata": {},
   "outputs": [
    {
     "name": "stdout",
     "output_type": "stream",
     "text": [
      "total samples:130\n",
      "meet the requirement Cys: 58587\n",
      "meet the requirement all: 52047\n",
      "26\n",
      "22\n"
     ]
    }
   ],
   "source": [
    "#Condition 4\n",
    "import json\n",
    "import numpy as np\n",
    "import os\n",
    "from Bio.PDB import PDBParser\n",
    "import mdtraj as md\n",
    "directory = '/home/jiangdapeng/PepGLAD/results/condition4_w5_5samples/results.jsonl'\n",
    "directory_good = '/home/jiangdapeng/PepGLAD/results/condition4_w5_5samples/good_results.jsonl'\n",
    "counter = 0\n",
    "counter2 = 0\n",
    "counter3 = 0\n",
    "total_counter = 0\n",
    "all_peptide_list = []\n",
    "meet_peptide_dic4 = {}\n",
    "meet_peptide_dic_path4 = {}\n",
    "with open(directory, 'r', encoding='utf-8') as f, open(directory_good, 'w', encoding='utf-8') as good_file:\n",
    "    for line in f:\n",
    "        # 跳过空行\n",
    "        if line.strip():\n",
    "            # 将每行解析为 JSON 对象\n",
    "            json_object = json.loads(line)\n",
    "            python_object = json.loads(line.strip())\n",
    "            peptide_path = json_object['gen_pdb']\n",
    "            peptide_path = os.path.join('..',peptide_path)\n",
    "            peptide = json_object['gen_seq']\n",
    "            id = json_object['id']\n",
    "            parser = PDBParser(QUIET=True)\n",
    "            structure = parser.get_structure('peptide', peptide_path)\n",
    "            chain = structure[0][json_object['lig_chain']]  # 假设只取第一个模型和指定的链\n",
    "            residues = list(chain.get_residues())\n",
    "            if len(peptide)<13:\n",
    "                continue\n",
    "            if id not in all_peptide_list:\n",
    "                all_peptide_list.append(id)\n",
    "            total_counter=total_counter+1\n",
    "            \n",
    "            flag=0\n",
    "            flag_distance = 0\n",
    "            counter2_flag = 0\n",
    "            for i in range(0,len(residues)):\n",
    "                for j in range(i+1,len(residues)):\n",
    "                    for k in range(j+1,len(residues)):\n",
    "                        flag1=False\n",
    "                        flag2 = False\n",
    "                        atom1 = residues[i]['C'] \n",
    "                        atom2 = residues[j]['C'] \n",
    "                        atom3 = residues[k]['C']\n",
    "                        # 计算欧几里得距离\n",
    "                        distance1 = np.linalg.norm(atom1.coord - atom2.coord)\n",
    "                        distance2 = np.linalg.norm(atom2.coord - atom3.coord)\n",
    "                        distance3 = np.linalg.norm(atom3.coord - atom1.coord)\n",
    "                        if distance1<10 and distance2<10 and distance3<10:\n",
    "                            flag1 = True\n",
    "                        if peptide[i] == 'C' and peptide[j] == 'C' and peptide[k] == 'C': \n",
    "                            counter2_flag = 1\n",
    "                            flag2 = True\n",
    "                        if flag1&flag2:\n",
    "                            flag=1\n",
    "                            if id not in meet_peptide_dic4.keys():\n",
    "                                meet_peptide_dic4[id] = 1\n",
    "                                meet_peptide_dic_path4[id] = [peptide_path]\n",
    "                                good_file.write(json.dumps(python_object) + '\\n')\n",
    "                            else:\n",
    "                                meet_peptide_dic4[id] += 1\n",
    "                                if peptide_path not in meet_peptide_dic_path4[id]:\n",
    "                                    meet_peptide_dic_path4[id].append(peptide_path)\n",
    "                                    good_file.write(json.dumps(python_object) + '\\n')\n",
    "            counter2+=counter2_flag\n",
    "            counter3+=flag\n",
    "            counter+=flag_distance\n",
    "\n",
    "print(f'total samples:{total_counter}')\n",
    "print(f'meet the requirement Cys: {counter2}')\n",
    "print(f'meet the requirement all: {counter3}')\n",
    "print(len(all_peptide_list))\n",
    "print(len(meet_peptide_dic4.keys()))"
   ]
  }
 ],
 "metadata": {
  "kernelspec": {
   "display_name": "PepGLAD",
   "language": "python",
   "name": "python3"
  },
  "language_info": {
   "codemirror_mode": {
    "name": "ipython",
    "version": 3
   },
   "file_extension": ".py",
   "mimetype": "text/x-python",
   "name": "python",
   "nbconvert_exporter": "python",
   "pygments_lexer": "ipython3",
   "version": "3.9.19"
  }
 },
 "nbformat": 4,
 "nbformat_minor": 2
}
